<svg xmlns="http://www.w3.org/2000/svg" viewBox="0 0 100 100">
  <rect width="100" height="100" fill="#ffb84d" rx="12"/>
  <!-- Face -->
  <ellipse cx="50" cy="55" rx="32" ry="28" fill="#fff"/>
  <!-- Spots -->
  <ellipse cx="35" cy="40" rx="8" ry="6" fill="#2c3e50"/>
  <ellipse cx="70" cy="45" rx="6" ry="8" fill="#2c3e50"/>
  <!-- Ears -->
  <ellipse cx="18" cy="40" rx="10" ry="6" fill="#fff"/>
  <ellipse cx="82" cy="40" rx="10" ry="6" fill="#fff"/>
  <ellipse cx="18" cy="40" rx="6" ry="3" fill="#ffc0cb"/>
  <ellipse cx="82" cy="40" rx="6" ry="3" fill="#ffc0cb"/>
  <!-- Horns -->
  <ellipse cx="28" cy="22" rx="5" ry="12" fill="#f5deb3"/>
  <ellipse cx="72" cy="22" rx="5" ry="12" fill="#f5deb3"/>
  <!-- Eyes -->
  <ellipse cx="38" cy="48" rx="6" ry="7" fill="#2c3e50"/>
  <ellipse cx="62" cy="48" rx="6" ry="7" fill="#2c3e50"/>
  <ellipse cx="40" cy="46" rx="2" ry="2.5" fill="#fff"/>
  <ellipse cx="64" cy="46" rx="2" ry="2.5" fill="#fff"/>
  <!-- Muzzle -->
  <ellipse cx="50" cy="68" rx="16" ry="12" fill="#ffc0cb"/>
  <!-- Nostrils -->
  <ellipse cx="44" cy="66" rx="4" ry="5" fill="#d4a5a5"/>
  <ellipse cx="56" cy="66" rx="4" ry="5" fill="#d4a5a5"/>
</svg>
