<svg xmlns="http://www.w3.org/2000/svg" viewBox="0 0 100 100">
  <rect width="100" height="100" fill="#3498db" rx="12"/>
  <!-- Body -->
  <ellipse cx="50" cy="60" rx="30" ry="28" fill="#8b6914"/>
  <!-- Ear tufts -->
  <polygon points="25,25 35,45 20,42" fill="#8b6914"/>
  <polygon points="75,25 65,45 80,42" fill="#8b6914"/>
  <!-- Face disc -->
  <ellipse cx="50" cy="52" rx="26" ry="22" fill="#f5deb3"/>
  <!-- Eye circles -->
  <ellipse cx="38" cy="48" rx="12" ry="12" fill="#fff"/>
  <ellipse cx="62" cy="48" rx="12" ry="12" fill="#fff"/>
  <!-- Eyes -->
  <ellipse cx="38" cy="48" rx="6" ry="6" fill="#2c3e50"/>
  <ellipse cx="62" cy="48" rx="6" ry="6" fill="#2c3e50"/>
  <ellipse cx="40" cy="46" rx="2" ry="2" fill="#fff"/>
  <ellipse cx="64" cy="46" rx="2" ry="2" fill="#fff"/>
  <!-- Beak -->
  <polygon points="50,56 45,66 50,72 55,66" fill="#ffb84d"/>
  <!-- Chest pattern -->
  <ellipse cx="50" cy="75" rx="14" ry="10" fill="#f5deb3"/>
  <path d="M42 72 L42 80" stroke="#c4a574" stroke-width="1"/>
  <path d="M46 71 L46 82" stroke="#c4a574" stroke-width="1"/>
  <path d="M50 70 L50 83" stroke="#c4a574" stroke-width="1"/>
  <path d="M54 71 L54 82" stroke="#c4a574" stroke-width="1"/>
  <path d="M58 72 L58 80" stroke="#c4a574" stroke-width="1"/>
</svg>
