<svg xmlns="http://www.w3.org/2000/svg" viewBox="0 0 100 100">
  <rect width="100" height="100" fill="#1abc9c" rx="12"/>
  <!-- Ears -->
  <ellipse cx="35" cy="22" rx="8" ry="22" fill="#f5f5f5"/>
  <ellipse cx="65" cy="22" rx="8" ry="22" fill="#f5f5f5"/>
  <ellipse cx="35" cy="22" rx="4" ry="16" fill="#ffc0cb"/>
  <ellipse cx="65" cy="22" rx="4" ry="16" fill="#ffc0cb"/>
  <!-- Face -->
  <ellipse cx="50" cy="60" rx="28" ry="26" fill="#f5f5f5"/>
  <!-- Eyes -->
  <ellipse cx="40" cy="52" rx="6" ry="7" fill="#2c3e50"/>
  <ellipse cx="60" cy="52" rx="6" ry="7" fill="#2c3e50"/>
  <ellipse cx="42" cy="50" rx="2" ry="2.5" fill="#fff"/>
  <ellipse cx="62" cy="50" rx="2" ry="2.5" fill="#fff"/>
  <!-- Nose -->
  <ellipse cx="50" cy="64" rx="4" ry="3" fill="#ffc0cb"/>
  <!-- Mouth -->
  <path d="M50 67 L50 72" stroke="#2c3e50" stroke-width="1.5" stroke-linecap="round"/>
  <path d="M44 72 Q50 76 56 72" fill="none" stroke="#2c3e50" stroke-width="1.5" stroke-linecap="round"/>
  <!-- Cheeks -->
  <ellipse cx="32" cy="65" rx="6" ry="4" fill="#ffd0d0"/>
  <ellipse cx="68" cy="65" rx="6" ry="4" fill="#ffd0d0"/>
  <!-- Whiskers -->
  <line x1="25" y1="62" x2="38" y2="64" stroke="#ccc" stroke-width="1"/>
  <line x1="25" y1="68" x2="38" y2="68" stroke="#ccc" stroke-width="1"/>
  <line x1="75" y1="62" x2="62" y2="64" stroke="#ccc" stroke-width="1"/>
  <line x1="75" y1="68" x2="62" y2="68" stroke="#ccc" stroke-width="1"/>
  <!-- Teeth -->
  <rect x="46" y="72" width="4" height="5" rx="1" fill="#fff" stroke="#ddd" stroke-width="0.5"/>
  <rect x="50" y="72" width="4" height="5" rx="1" fill="#fff" stroke="#ddd" stroke-width="0.5"/>
</svg>
